PathFileType	4	(X/Y/Z)	pose_F01_0-96.trc
DataRate	CameraRate	NumFrames	NumMarkers	Units	OrigDataRate	OrigDataStartFrame	OrigNumFrames
30	30	6	21	m	30	84	96
Frame#	Time	CHip			RHip			RKnee			RAnkle			RBigToe			RSmallToe			RHeel			LHip			LKnee			LAnkle			LBigToe			LSmallToe			LHeel			Neck			Nose			RShoulder			RElbow			RWrist			LShoulder			LElbow			LWrist			
		X1	Y1	Z1	X2	Y2	Z2	X3	Y3	Z3	X4	Y4	Z4	X5	Y5	Z5	X6	Y6	Z6	X7	Y7	Z7	X8	Y8	Z8	X9	Y9	Z9	X10	Y10	Z10	X11	Y11	Z11	X12	Y12	Z12	X13	Y13	Z13	X14	Y14	Z14	X15	Y15	Z15	X16	Y16	Z16	X17	Y17	Z17	X18	Y18	Z18	X19	Y19	Z19	X20	Y20	Z20	X21	Y21	Z21	
84	2.8	-0.12678228017629758	1.869605574214698	-0.2974838020436765	-0.12973710719852488	1.8660551787653978	-0.23079326980833673	-0.1166099406354919	1.7397798056148732	-0.220996511671332	-0.16512376205718246	1.6028045328565708	-0.3717382295368688							-0.13009954015650937	1.5953951986325476	-0.35112176656353816	-0.12091981603180282	1.8739270446914	-0.3572615844938127	-0.12725299206393229	1.7466702351014165	-0.40220368929282363	-0.11934276531525478	1.6118700605298053	-0.4574149244042914	-0.14290624230197282	1.576221738822921	-0.4807901665636276	-0.13232910649267898	1.5834419146599215	-0.5105277692069001	-0.10975000022002541	1.59960351545996	-0.44452513464320925	-0.12339253439305875	2.022627558531673	-0.30900428368835875	-0.15664700986579796	2.0824505426454554	-0.3583652333093401	-0.13395068387153616	2.018252901244259	-0.22898517419363343	-0.12606194942642526	1.934496198894967	-0.1699587059646475	-0.1423352908006123	1.8613920870212828	-0.12961661229930607	-0.1172245961745333	2.026975980099932	-0.3929533091749638	-0.10568062769218474	1.951591694362868	-0.4225151389082346	-0.10718496687601015	1.8886131651028906	-0.47799483727734443
85	2.8333333333333335	-0.12861411457695396	1.869278323811174	-0.30410745761644875	-0.13262494851749732	1.8658132992168224	-0.2320692223949728	-0.1161945358393848	1.7386265602837365	-0.22367669747370356	-0.16512376205718246	1.6028045328565708	-0.3717382295368688							-0.13009954015650937	1.5953951986325476	-0.35112176656353816	-0.12168966510225947	1.8740106387911002	-0.3605757391036313	-0.12712767341495237	1.7454915096875054	-0.40234686833671884	-0.11729230237327697	1.6116938762564537	-0.45967004545657264	-0.14151915777191823	1.5773128610344835	-0.48699010721341374	-0.13194822417645422	1.5819043400253636	-0.510888906283311	-0.10943752979475213	1.5985339112069916	-0.4445077153348747	-0.12431794355497695	2.022110928275626	-0.3117153775230023	-0.1564804701164625	2.0846455315738552	-0.36403381479402064	-0.13321048469169114	2.018633002139186	-0.2267051793528218	-0.12731191187299895	1.9350804945685376	-0.18214154645871483	-0.14185978573033822	1.8610867510248665	-0.1434591325286482	-0.11627386235357533	2.0244882389557834	-0.397349789579217	-0.10665577804772958	1.94637420919023	-0.4245693208406397	-0.10704520902143713	1.8777759931928388	-0.4568510966882343
86	2.8666666666666667	-0.1275590594803339	1.8691422860801166	-0.30988442060230603	-0.1337250899985488	1.8663694748479898	-0.24487822846137697	-0.11710461229652261	1.7401020760502353	-0.22551984585672252	-0.16512376205718246	1.6028045328565708	-0.3717382295368688							-0.13009954015650937	1.5953951986325476	-0.35112176656353816	-0.12422748033022118	1.8730075478149812	-0.3796331304585884	-0.1240573413600781	1.7469510172582936	-0.4107664846110032	-0.11561299099071806	1.6114789441215087	-0.4661878069311934	-0.14051650374012326	1.575033865475819	-0.4924131269446865	-0.12814941941689004	1.5809804132910819	-0.51488423755803	-0.1081677151466761	1.5998208000873784	-0.45111510210458766	-0.12458730881444957	2.0210736177326942	-0.32059360599729203	-0.156313930367127	2.086840520502255	-0.36970239627870116	-0.13319034965602364	2.0195834697474933	-0.22694931750857933	-0.12856187431957264	1.935664790242108	-0.19432438695278217	-0.14138428066006412	1.8607814150284505	-0.15730165275799032	-0.11534561952037557	2.025806268014542	-0.4125527851521959	-0.10540419229149944	1.9467151618186478	-0.4396986420883368	-0.10455893899707401	1.878726942476029	-0.46976089869879084
87	2.9	-0.12819475807544267	1.8714224281472862	-0.3198146559911362	-0.13530226883943547	1.8679655451002457	-0.25816781383826687	-0.11801468875366043	1.7415775918167338	-0.22736299423974152	-0.16512376205718246	1.6028045328565708	-0.3717382295368688							-0.13009954015650937	1.5953951986325476	-0.35112176656353816	-0.12191125690127173	1.8771561307200622	-0.3887529782367762	-0.12556631929887457	1.746613510415871	-0.41363291982749467	-0.10989297218859881	1.611109027322434	-0.4725713369362216	-0.14205014634959245	1.5761715952415964	-0.4998413779517177	-0.12902400549863643	1.5808060451537747	-0.5183271865650041	-0.10442115764160005	1.5998786159232676	-0.4642579689992975	-0.12673201342927556	2.0226884398278293	-0.33675686671182503	-0.15614739061779154	2.0890355094306545	-0.3753709777633817	-0.13481845437672352	2.019194908124901	-0.23993670481662047	-0.12981183676614633	1.9362490859156787	-0.20650722744684952	-0.14090877558979004	1.8604760790320343	-0.17114417298733245	-0.11517499854733855	2.0252305603601326	-0.42090349537027044	-0.1041526065352693	1.9470561144470653	-0.4548279633360339	-0.10207266897271089	1.8796778917592187	-0.4826707007093474
88	2.933333333333333	-0.12904629999801448	1.871696410311232	-0.33236059270221374	-0.13446128824346498	1.8668246915294469	-0.26355862545758196	-0.11929232285740979	1.7442312813953993	-0.24071985948452815	-0.16512376205718246	1.6028045328565708	-0.3717382295368688							-0.13009954015650937	1.5953951986325476	-0.35112176656353816	-0.11877320556827191	1.8773148168726226	-0.3965667846557769	-0.1282881247100016	1.7463504654944904	-0.433051723718231	-0.10700685677034703	1.6103143287846056	-0.4798778641372547	-0.14148329164551476	1.5757174173105117	-0.49564545773329427	-0.12919159423604365	1.5790880648787347	-0.5176350517231315	-0.100002344589711	1.5965325024040955	-0.47294398873152077	-0.12569376427671153	2.0228294752501674	-0.34193336139110014	-0.15598085086845606	2.0912304983590544	-0.3810395592480622	-0.13345108000479178	2.0222000333011296	-0.2599833194501339	-0.13106179921272001	1.9368333815892493	-0.21869006794091686	-0.14043327051951596	1.860170743035618	-0.18498669321667457	-0.11415832772617752	2.0257158197581755	-0.4264918660171199	-0.10290102077903916	1.947397067075483	-0.469957284583731	-0.09958639894834778	1.8806288410424088	-0.49558050271990395
89	2.966666666666667	-0.13109594564201835	1.8689259302446042	-0.3388871146969202	-0.13821276993734907	1.8658580230514097	-0.2680529470249027	-0.12209250403914618	1.74463290479031	-0.25165646353256454	-0.16512376205718246	1.6028045328565708	-0.3717382295368688							-0.13009954015650937	1.5953951986325476	-0.35112176656353816	-0.12240952303418785	1.8741400388606686	-0.4095713091193751	-0.12943280013063424	1.7471642095365432	-0.43670820011812606	-0.10490690206128114	1.6105239975782002	-0.48227079867449824	-0.13381864322608392	1.5796056690281184	-0.5039500652667349	-0.12108080822022478	1.5812215624429418	-0.5266621003061397	-0.09747928121226876	1.5975657434065036	-0.4757170926105867	-0.12579038703649034	2.0217157617904826	-0.35026622879040353	-0.1551375628539882	2.0931375606264804	-0.3947438124533354	-0.13654607825446205	2.0186587714962525	-0.2688375549560549	-0.1323117616592937	1.9374176772628198	-0.2308729084349842	-0.13995776544924185	1.859865407039202	-0.1988292134460167	-0.11219848207276541	2.0256703538678797	-0.43761286441514485	-0.10164943502280901	1.9477380197039005	-0.4850866058314281	-0.09710012892398466	1.8815797903255989	-0.5084903047304605
